<svg width="1280" height="832" viewBox="0 0 1280 832" fill="none" xmlns="http://www.w3.org/2000/svg">
<g clip-path="url(#clip0_469_102)">
<rect width="1280" height="832" fill="white"/>
<g filter="url(#filter0_f_469_102)">
<circle cx="639.5" cy="1348.5" r="811.5" fill="#E6E6FF"/>
</g>
<path d="M1198.33 591.708C1200.77 591.708 1202.75 589.726 1202.75 587.282C1202.75 584.837 1200.77 582.856 1198.33 582.856C1195.88 582.856 1193.9 584.837 1193.9 587.282C1193.9 589.726 1195.88 591.708 1198.33 591.708Z" fill="#00D8FF"/>
<path d="M1198.33 597.43C1193.01 597.559 1187.7 596.841 1182.61 595.306C1180.25 594.56 1178.06 593.384 1176.13 591.839C1175.4 591.312 1174.78 590.631 1174.34 589.844C1173.89 589.058 1173.62 588.183 1173.54 587.282C1173.54 584.355 1176.76 581.487 1182.14 579.61C1187.37 577.949 1192.84 577.143 1198.33 577.224C1203.74 577.149 1209.14 577.94 1214.3 579.568C1216.57 580.291 1218.69 581.41 1220.57 582.872C1221.29 583.376 1221.89 584.032 1222.33 584.794C1222.77 585.556 1223.04 586.405 1223.11 587.282C1223.11 590.324 1219.52 593.406 1213.73 595.322C1208.73 596.808 1203.54 597.519 1198.33 597.43ZM1198.33 579.341C1193.08 579.273 1187.85 580.039 1182.84 581.611C1177.88 583.341 1175.66 585.706 1175.66 587.277C1175.66 588.92 1178.05 591.503 1183.29 593.296C1188.17 594.759 1193.24 595.439 1198.33 595.313C1203.31 595.402 1208.29 594.727 1213.07 593.312C1218.51 591.508 1220.99 588.921 1220.99 587.282C1220.9 586.719 1220.7 586.182 1220.39 585.702C1220.08 585.223 1219.68 584.813 1219.2 584.497C1217.52 583.2 1215.63 582.208 1213.61 581.569C1208.66 580.018 1203.51 579.266 1198.33 579.341Z" fill="#00D8FF"/>
<path d="M1188.27 609.358C1187.44 609.377 1186.63 609.177 1185.91 608.777C1183.37 607.315 1182.49 603.098 1183.56 597.494C1184.73 592.132 1186.76 586.994 1189.58 582.28C1192.22 577.552 1195.59 573.276 1199.58 569.614C1201.34 568.012 1203.37 566.734 1205.58 565.838C1206.37 565.465 1207.24 565.272 1208.12 565.272C1209 565.272 1209.87 565.465 1210.67 565.838C1213.31 567.357 1214.18 572.01 1212.95 577.981C1211.74 583.053 1209.76 587.909 1207.08 592.381C1204.53 597.054 1201.26 601.292 1197.38 604.939C1195.56 606.605 1193.45 607.919 1191.15 608.815C1190.22 609.157 1189.25 609.341 1188.27 609.358ZM1191.41 583.332C1188.73 587.846 1186.78 592.758 1185.64 597.884C1184.66 603.045 1185.6 606.148 1186.97 606.938C1188.38 607.758 1191.82 606.98 1196 603.333C1199.7 599.84 1202.82 595.782 1205.25 591.311C1207.82 587.037 1209.72 582.394 1210.88 577.544C1212.04 571.923 1211.04 568.481 1209.62 567.663C1209.09 567.459 1208.52 567.368 1207.95 567.395C1207.38 567.423 1206.82 567.567 1206.31 567.821C1204.35 568.631 1202.55 569.78 1200.98 571.216C1197.17 574.724 1193.94 578.818 1191.42 583.342L1191.41 583.332Z" fill="#00D8FF"/>
<path d="M1208.38 609.381C1205.98 609.381 1202.93 607.929 1199.76 605.201C1195.7 601.505 1192.26 597.179 1189.58 592.388C1186.81 587.739 1184.79 582.676 1183.61 577.39C1183.1 575.064 1183.01 572.667 1183.33 570.308C1183.41 569.433 1183.67 568.586 1184.11 567.825C1184.55 567.065 1185.15 566.409 1185.87 565.905C1188.5 564.38 1192.97 565.947 1197.53 569.995C1201.32 573.575 1204.54 577.715 1207.07 582.271C1209.85 586.812 1211.89 591.764 1213.11 596.943C1213.64 599.354 1213.72 601.843 1213.35 604.284C1213.26 605.184 1212.98 606.054 1212.52 606.835C1212.07 607.616 1211.45 608.289 1210.71 608.807C1209.99 609.201 1209.19 609.399 1208.38 609.381ZM1191.42 591.322C1193.99 595.9 1197.27 600.041 1201.14 603.59C1205.12 607.016 1208.28 607.752 1209.64 606.954C1211.05 606.13 1212.1 602.77 1211.02 597.333C1209.84 592.388 1207.89 587.66 1205.23 583.326C1202.81 578.966 1199.74 575.001 1196.12 571.57C1191.83 567.76 1188.35 566.909 1186.93 567.73C1186.49 568.09 1186.13 568.537 1185.87 569.043C1185.61 569.549 1185.45 570.104 1185.42 570.673C1185.14 572.776 1185.23 574.913 1185.69 576.985C1186.82 582.039 1188.76 586.88 1191.42 591.326L1191.42 591.322Z" fill="#00D8FF"/>
<g clip-path="url(#clip1_469_102)">
<path d="M1141.77 299C1137.71 299 1134.71 302.551 1134.85 306.401C1134.98 310.101 1134.81 314.892 1133.6 318.8C1132.39 322.718 1130.35 325.201 1127 325.519V329.118C1130.35 329.436 1132.39 331.919 1133.6 335.838C1134.81 339.745 1134.98 344.536 1134.85 348.236C1134.71 352.086 1137.71 355.637 1141.77 355.637H1183.34C1187.4 355.637 1190.4 352.086 1190.26 348.236C1190.13 344.536 1190.3 339.745 1191.51 335.838C1192.72 331.919 1194.76 329.436 1198.1 329.118V325.519C1194.76 325.201 1192.72 322.718 1191.51 318.8C1190.3 314.893 1190.13 310.101 1190.26 306.401C1190.4 302.551 1187.4 299 1183.34 299H1141.77H1141.77ZM1175.2 333.864C1175.2 339.166 1171.25 342.381 1164.69 342.381H1153.51C1153.19 342.381 1152.89 342.254 1152.66 342.028C1152.44 341.802 1152.31 341.496 1152.31 341.176V313.461C1152.31 313.141 1152.44 312.834 1152.66 312.608C1152.89 312.382 1153.19 312.255 1153.51 312.255H1164.62C1170.1 312.255 1173.69 315.22 1173.69 319.771C1173.69 322.966 1171.27 325.826 1168.19 326.327V326.494C1172.38 326.953 1175.2 329.855 1175.2 333.864ZM1163.47 316.075H1157.1V325.074H1162.46C1166.61 325.074 1168.9 323.403 1168.9 320.418C1168.9 317.62 1166.93 316.075 1163.47 316.075ZM1157.1 328.644V338.56H1163.7C1168.02 338.56 1170.31 336.827 1170.31 333.571C1170.31 330.314 1167.96 328.644 1163.43 328.644H1157.1V328.644Z" fill="#7E13F8"/>
</g>
<path d="M524.45 171.159L520.472 126.541H564.186L560.202 171.152L542.302 176.115L524.45 171.159Z" fill="#E44F26"/>
<path d="M542.328 172.322L556.793 168.312L560.196 130.19H542.328V172.322Z" fill="#F1662A"/>
<path d="M542.328 146.737H535.087L534.588 141.133H542.328V135.661H528.607L528.738 137.13L530.082 152.21H542.328V146.737ZM542.328 160.949L542.303 160.956L536.209 159.311L535.82 154.947H530.326L531.093 163.537L542.303 166.65L542.328 166.643V160.949Z" fill="#EBEBEB"/>
<path d="M542.309 146.737V152.21H549.048L548.414 159.307L542.309 160.954V166.648L553.529 163.537L553.61 162.613L554.896 148.206L555.03 146.737H542.309ZM542.309 135.661V141.133H555.528L555.637 139.905L555.887 137.13L556.018 135.661H542.309Z" fill="white"/>
<path d="M138.45 216.159L134.474 171.541H178.184L174.202 216.152L156.302 221.115L138.45 216.159Z" fill="#1572B6"/>
<path d="M156.328 217.322L170.793 213.312L174.196 175.19H156.328V217.322Z" fill="#33A9DC"/>
<path d="M156.328 191.355H163.569L164.069 185.751H156.328V180.278H170.049L169.918 181.746L168.575 196.827H156.328V191.355Z" fill="white"/>
<path d="M156.363 205.566L156.338 205.573L150.244 203.927L149.854 199.563H144.36L145.127 208.155L156.336 211.267L156.363 211.26V205.566Z" fill="#EBEBEB"/>
<path d="M163.104 196.595L162.445 203.923L156.342 205.57V211.264L167.56 208.155L167.643 207.231L168.594 196.595H163.104Z" fill="white"/>
<path d="M156.347 180.278V185.751H143.129L143.019 184.521L142.769 181.746L142.638 180.278H156.347ZM156.328 191.355V196.827H150.31L150.2 195.597L149.952 192.822L149.821 191.355H156.328Z" fill="#EBEBEB"/>
<g clip-path="url(#clip2_469_102)">
<path d="M1188.38 106H1158.28C1150.94 106 1145 111.945 1145 119.279V149.377C1145 156.711 1150.94 162.656 1158.28 162.656H1188.38C1195.71 162.656 1201.65 156.711 1201.65 149.377V119.279C1201.65 111.945 1195.71 106 1188.38 106Z" fill="#242938"/>
<path d="M1173.33 112.639C1161.11 112.639 1151.2 122.548 1151.2 134.771C1151.2 144.549 1157.54 152.845 1166.33 155.771C1167.44 155.976 1167.84 155.291 1167.84 154.707C1167.84 154.179 1167.82 152.435 1167.81 150.586C1161.66 151.925 1160.36 147.975 1160.36 147.975C1159.35 145.417 1157.9 144.737 1157.9 144.737C1155.89 143.363 1158.05 143.391 1158.05 143.391C1160.27 143.547 1161.44 145.672 1161.44 145.672C1163.42 149.055 1166.62 148.077 1167.88 147.512C1168.08 146.081 1168.66 145.105 1169.29 144.552C1164.37 143.993 1159.21 142.095 1159.21 133.615C1159.21 131.199 1160.07 129.224 1161.49 127.674C1161.26 127.117 1160.5 124.866 1161.7 121.818C1161.7 121.818 1163.56 121.223 1167.79 124.086C1169.55 123.596 1171.45 123.35 1173.33 123.342C1175.21 123.35 1177.1 123.596 1178.87 124.086C1183.09 121.223 1184.95 121.818 1184.95 121.818C1186.16 124.866 1185.4 127.117 1185.17 127.674C1186.59 129.224 1187.45 131.199 1187.45 133.615C1187.45 142.115 1182.27 143.987 1177.34 144.535C1178.13 145.222 1178.84 146.568 1178.84 148.633C1178.84 151.594 1178.82 153.978 1178.82 154.707C1178.82 155.295 1179.21 155.985 1180.34 155.768C1189.12 152.838 1195.46 144.546 1195.46 134.771C1195.46 122.548 1185.55 112.639 1173.33 112.639ZM1159.48 144.166C1159.44 144.276 1159.26 144.309 1159.1 144.233C1158.94 144.161 1158.85 144.011 1158.91 143.901C1158.95 143.788 1159.13 143.756 1159.29 143.832C1159.45 143.904 1159.54 144.056 1159.48 144.166ZM1160.57 145.137C1160.47 145.235 1160.26 145.19 1160.12 145.035C1159.98 144.881 1159.95 144.674 1160.06 144.575C1160.16 144.477 1160.37 144.523 1160.51 144.677C1160.65 144.834 1160.68 145.038 1160.57 145.137ZM1161.32 146.38C1161.18 146.474 1160.96 146.386 1160.83 146.189C1160.69 145.992 1160.69 145.756 1160.83 145.662C1160.97 145.567 1161.18 145.652 1161.32 145.848C1161.46 146.048 1161.46 146.284 1161.32 146.38ZM1162.58 147.82C1162.46 147.953 1162.2 147.917 1162.01 147.735C1161.82 147.556 1161.77 147.303 1161.89 147.169C1162.01 147.035 1162.27 147.073 1162.46 147.254C1162.65 147.432 1162.71 147.687 1162.58 147.82ZM1164.22 148.305C1164.16 148.479 1163.91 148.558 1163.66 148.484C1163.41 148.408 1163.25 148.205 1163.3 148.03C1163.35 147.855 1163.6 147.773 1163.85 147.852C1164.1 147.928 1164.27 148.129 1164.22 148.305ZM1166.07 148.512C1166.08 148.694 1165.87 148.845 1165.6 148.849C1165.34 148.855 1165.12 148.707 1165.12 148.527C1165.12 148.343 1165.33 148.193 1165.59 148.189C1165.86 148.184 1166.07 148.33 1166.07 148.512ZM1167.9 148.442C1167.93 148.62 1167.75 148.803 1167.49 148.851C1167.23 148.898 1166.99 148.788 1166.96 148.612C1166.93 148.429 1167.11 148.246 1167.37 148.199C1167.63 148.153 1167.86 148.261 1167.9 148.442Z" fill="white"/>
</g>
<g clip-path="url(#clip3_469_102)">
<path d="M393.288 273.067C393.074 273.09 392.405 273.169 391.815 273.239C389.436 273.51 386.739 274.224 384.372 275.222C375.805 278.801 369.357 286.654 367.578 295.662C367.159 297.805 367.058 298.857 367.058 301.328C367.058 304.513 367.374 306.71 368.213 309.487C370.955 318.574 378.094 325.701 387.204 328.454C389.946 329.282 392.156 329.599 395.328 329.599C398.513 329.599 400.711 329.282 403.488 328.443C412.575 325.701 419.702 318.563 422.455 309.452C423.283 306.71 423.599 304.501 423.599 301.328C423.599 299.979 423.532 298.439 423.452 297.871C422.534 291.322 419.837 285.815 415.34 281.316C410.851 276.852 405.367 274.145 398.953 273.227C398.07 273.102 393.979 272.988 393.288 273.067ZM384.053 290.914C384.655 291.095 384.937 291.265 385.345 291.673C386.139 292.478 386.32 292.92 386.32 294.132C386.32 295.04 386.286 295.209 386.014 295.684C385.492 296.568 384.28 297.384 383.442 297.406C382.852 297.419 382.876 297.157 383.521 296.478C384.382 295.583 384.507 295.243 384.507 293.905C384.496 292.614 384.337 292.173 383.737 291.81C383.238 291.504 382.695 291.526 381.901 291.9C379.838 292.887 377.606 296.172 376.735 299.538C375.578 304.025 377.629 307.616 381.006 307.004C381.991 306.823 383.849 305.872 384.655 305.123C385.323 304.513 385.323 304.501 385.39 303.742C385.539 302.154 386.659 300.569 388.157 299.832C388.846 299.491 389.017 299.459 389.946 299.459C390.83 299.459 391.034 299.504 391.464 299.741C392.835 300.524 392.552 302.348 391.068 302.348C390.207 302.348 389.765 301.905 390.389 301.669C391.001 301.442 390.772 300.591 390.06 300.399C389.222 300.183 388.269 300.75 387.669 301.838C386.943 303.152 386.91 304.717 387.6 305.429C388.269 306.143 389.107 305.578 389.754 303.956C390.093 303.129 390.58 302.687 391.148 302.687C391.646 302.687 391.737 302.993 391.521 303.923C391.203 305.361 391.419 305.735 392.315 305.294C392.608 305.157 393.096 304.841 393.39 304.615L393.945 304.172L394.321 302.211C394.729 300.014 394.886 299.718 395.725 299.561C396.53 299.412 396.712 299.81 396.416 301.067L396.257 301.77L396.847 301.169C398.24 299.741 399.952 299.039 400.541 299.628C400.858 299.945 400.823 300.342 400.37 301.746C400.156 302.415 399.86 303.47 399.725 304.07C399.521 304.976 399.509 305.192 399.624 305.339C399.987 305.77 401.096 305.327 402.082 304.364L402.66 303.799L402.729 302.54C402.796 301.089 402.931 300.569 403.316 300.104C403.679 299.673 404.337 299.357 404.688 299.447C405.039 299.538 405.039 299.877 404.722 300.875C404.28 302.246 404.326 305.407 404.779 305.407C404.961 305.407 405.889 304.433 406.479 303.617L406.92 303.015L406.569 302.654C405.957 302.008 405.81 301.589 405.81 300.534C405.81 299.765 405.867 299.481 406.058 299.106C406.377 298.518 406.875 298.088 407.464 297.917C408.087 297.724 408.858 298.041 409.174 298.608C409.492 299.186 409.413 300.477 409.005 301.362L408.711 302.007H409.107C409.651 302.007 409.866 301.872 410.841 300.954C411.351 300.467 411.94 300.047 412.381 299.843C414.116 299.028 416.156 299.447 416.495 300.693C416.778 301.691 416.156 302.393 415.067 302.313C414.285 302.256 414.138 302.052 414.591 301.669C415.407 300.987 414.591 300.116 413.424 300.432C412.789 300.603 412.075 301.316 411.702 302.144C410.953 303.799 411.351 305.747 412.426 305.747C412.857 305.747 413.618 304.897 413.911 304.07C414.262 303.117 414.999 302.518 415.554 302.733C415.86 302.846 415.883 303.152 415.691 304.115C415.475 305.17 415.442 306.156 415.611 306.608C415.679 306.777 415.883 307.096 416.076 307.31C416.438 307.718 416.45 307.865 416.144 308.059C415.997 308.161 415.803 308.116 415.328 307.855C414.671 307.514 414.104 306.902 413.9 306.325L413.775 305.986L413.322 306.325C413.061 306.506 412.653 306.71 412.416 306.777C411.475 307.027 410.319 306.382 409.776 305.294C409.56 304.874 409.492 303.64 409.651 303.164C409.742 302.903 409.742 302.903 409.378 303.084C409.186 303.186 408.778 303.299 408.462 303.333C407.94 303.391 407.86 303.448 407.34 304.104C406.603 305.021 405.299 306.257 404.767 306.518C403.635 307.084 403.261 306.925 402.965 305.757L402.761 304.976L402.274 305.407C401.651 305.951 400.405 306.608 399.69 306.767C399.011 306.914 398.285 306.698 397.991 306.245C397.55 305.566 397.697 304.127 398.399 302.189C398.919 300.75 398.546 300.728 397.232 302.099C396.257 303.129 395.838 303.866 395.567 305.01C395.284 306.2 394.943 306.63 394.174 306.812C393.708 306.914 393.492 306.63 393.584 306.008L393.651 305.508L393.221 305.804C392.608 306.223 391.837 306.608 391.305 306.755C390.772 306.902 390.07 306.745 389.901 306.449C389.595 305.929 389.595 305.929 389.12 306.302C388.088 307.141 386.614 306.902 385.867 305.792L385.628 305.441L384.882 306.133C382.727 308.104 380.032 308.987 378.037 308.375C375.498 307.606 374.094 305.429 374.117 302.291C374.128 299.141 375.521 295.821 377.867 293.362C379.193 291.979 380.44 291.163 381.709 290.857C382.626 290.631 383.182 290.642 384.053 290.914Z" fill="#00C4CC"/>
<path d="M407.021 298.971C406.772 299.22 406.863 300.218 407.18 300.852C407.339 301.181 407.509 301.442 407.565 301.442C407.61 301.442 407.712 301.181 407.792 300.863C408.075 299.685 407.565 298.426 407.021 298.971Z" fill="#00C4CC"/>
</g>
<g clip-path="url(#clip4_469_102)">
<path d="M149.377 509H119.279C111.945 509 106 514.945 106 522.279V552.377C106 559.711 111.945 565.656 119.279 565.656H149.377C156.711 565.656 162.656 559.711 162.656 552.377V522.279C162.656 514.945 156.711 509 149.377 509Z" fill="#242938"/>
<mask id="mask0_469_102" style="mask-type:luminance" maskUnits="userSpaceOnUse" x="119" y="515" width="31" height="45">
<path d="M119.5 515.197H149.014V559.459H119.5V515.197Z" fill="white"/>
</mask>
<g mask="url(#mask0_469_102)">
<path d="M126.881 559.459C130.953 559.459 134.258 556.154 134.258 552.082V544.705H126.881C122.809 544.705 119.504 548.01 119.504 552.082C119.504 556.154 122.809 559.459 126.881 559.459Z" fill="#0ACF83"/>
<path d="M119.504 537.328C119.504 533.256 122.809 529.951 126.881 529.951H134.258V544.705H126.881C122.809 544.705 119.504 541.4 119.504 537.328Z" fill="#A259FF"/>
<path d="M119.504 522.574C119.504 518.502 122.809 515.197 126.881 515.197H134.258V529.951H126.881C122.809 529.951 119.504 526.646 119.504 522.574Z" fill="#F24E1E"/>
<path d="M134.257 515.197H141.634C145.706 515.197 149.011 518.502 149.011 522.574C149.011 526.646 145.706 529.951 141.634 529.951H134.257V515.197Z" fill="#FF7262"/>
<path d="M149.011 537.328C149.011 541.4 145.706 544.705 141.634 544.705C137.562 544.705 134.257 541.4 134.257 537.328C134.257 533.256 137.562 529.951 141.634 529.951C145.706 529.951 149.011 533.256 149.011 537.328Z" fill="#1ABCFE"/>
</g>
</g>
<g clip-path="url(#clip5_469_102)">
<path d="M965.421 188.201H954.59V167H965.421C971.266 167 976.02 171.754 976.02 177.599C976.02 183.444 971.266 188.201 965.421 188.201ZM958.063 184.729H965.421C969.352 184.729 972.548 181.53 972.548 177.602C972.548 173.674 969.349 170.475 965.421 170.475H958.063V184.729ZM958.063 188.201H947.235C941.39 188.201 936.635 183.447 936.635 177.602C936.635 171.757 941.39 167 947.235 167H958.065V188.201H958.063ZM947.235 170.473C943.304 170.473 940.108 173.671 940.108 177.599C940.108 181.527 943.304 184.729 947.235 184.729H954.593V170.473H947.235ZM958.063 205.927H947.235C941.39 205.927 936.635 201.173 936.635 195.328C936.635 189.483 941.39 184.729 947.235 184.729H958.065V205.927H958.063ZM947.235 188.201C943.304 188.201 940.108 191.4 940.108 195.328C940.108 199.256 943.306 202.455 947.235 202.455H954.593V188.201H947.235ZM947.291 223.656C941.416 223.656 936.633 218.901 936.633 213.056C936.633 207.211 941.387 202.457 947.232 202.457H958.063V212.941C958.063 218.849 953.231 223.656 947.291 223.656ZM947.235 205.927C945.345 205.93 943.534 206.681 942.198 208.017C940.862 209.353 940.11 211.165 940.108 213.054C940.108 216.985 943.33 220.181 947.294 220.181C951.318 220.181 954.595 216.933 954.595 212.938V205.927H947.235ZM965.421 205.927H965.19C959.345 205.927 954.59 201.173 954.59 195.328C954.59 189.483 959.345 184.729 965.19 184.729H965.421C971.266 184.729 976.02 189.483 976.02 195.328C976.02 201.173 971.266 205.927 965.421 205.927ZM965.192 188.201C961.262 188.201 958.065 191.4 958.065 195.328C958.065 199.256 961.264 202.455 965.192 202.455H965.423C969.354 202.455 972.55 199.256 972.55 195.328C972.55 191.4 969.349 188.201 965.421 188.201H965.192Z" fill="#888888"/>
</g>
<path d="M813.903 145.541C810.518 145.541 807.209 144.537 804.394 142.657C801.58 140.776 799.386 138.103 798.091 134.976C796.796 131.849 796.457 128.407 797.117 125.087C797.777 121.767 799.407 118.718 801.801 116.324C804.194 113.931 807.244 112.301 810.564 111.64C813.884 110.98 817.325 111.319 820.452 112.614C823.58 113.91 826.253 116.103 828.133 118.918C830.014 121.732 831.018 125.041 831.018 128.426C831.012 132.964 829.207 137.314 825.999 140.522C822.79 143.731 818.44 145.536 813.903 145.541ZM813.903 120.754C812.385 120.754 810.902 121.204 809.64 122.047C808.379 122.89 807.395 124.088 806.815 125.49C806.234 126.892 806.082 128.435 806.378 129.923C806.674 131.411 807.405 132.778 808.478 133.851C809.551 134.924 810.918 135.655 812.406 135.951C813.894 136.247 815.437 136.095 816.839 135.514C818.241 134.934 819.439 133.95 820.282 132.689C821.125 131.427 821.575 129.944 821.575 128.426C821.572 126.392 820.763 124.443 819.324 123.005C817.886 121.567 815.937 120.757 813.903 120.754Z" stroke="#888888" stroke-width="1.18033" stroke-linecap="round" stroke-linejoin="round"/>
<path d="M806.229 143.72V152.623C806.229 153.875 805.732 155.076 804.846 155.961C803.961 156.847 802.76 157.344 801.508 157.344C800.256 157.344 799.055 156.847 798.17 155.961C797.284 155.076 796.787 153.875 796.787 152.623V128.426M788.524 156.164V131.967" stroke="#888888" stroke-width="1.18033" stroke-linecap="round" stroke-linejoin="round"/>
<path d="M788.525 129.312C789.014 129.312 789.41 128.915 789.41 128.426C789.41 127.937 789.014 127.541 788.525 127.541C788.036 127.541 787.64 127.937 787.64 128.426C787.64 128.915 788.036 129.312 788.525 129.312Z" fill="#888888"/>
<path d="M813.903 136.098V145.541M808.478 133.851L801.801 140.528M806.231 128.426H796.788M808.478 123.001L801.801 116.324M813.903 120.754V111.312M819.328 123.001L826.005 116.324M821.575 128.426H831.018M819.328 133.851L826.005 140.528" stroke="#888888" stroke-width="1.18033" stroke-linecap="round" stroke-linejoin="round"/>
</g>
<defs>
<filter id="filter0_f_469_102" x="-282.703" y="426.297" width="1844.41" height="1844.41" filterUnits="userSpaceOnUse" color-interpolation-filters="sRGB">
<feFlood flood-opacity="0" result="BackgroundImageFix"/>
<feBlend mode="normal" in="SourceGraphic" in2="BackgroundImageFix" result="shape"/>
<feGaussianBlur stdDeviation="55.3513" result="effect1_foregroundBlur_469_102"/>
</filter>
<clipPath id="clip0_469_102">
<rect width="1280" height="832" fill="white"/>
</clipPath>
<clipPath id="clip1_469_102">
<rect width="71.103" height="56.6557" fill="white" transform="translate(1127 299)"/>
</clipPath>
<clipPath id="clip2_469_102">
<rect width="56.6557" height="56.6557" fill="white" transform="translate(1145 106)"/>
</clipPath>
<clipPath id="clip3_469_102">
<rect width="56.6557" height="56.6557" fill="white" transform="translate(367 273)"/>
</clipPath>
<clipPath id="clip4_469_102">
<rect width="56.6557" height="56.6557" fill="white" transform="translate(106 509)"/>
</clipPath>
<clipPath id="clip5_469_102">
<rect width="56.6557" height="56.6557" fill="white" transform="translate(928 167)"/>
</clipPath>
</defs>
</svg>
