<svg width="1280" height="832" viewBox="0 0 1280 832" fill="none" xmlns="http://www.w3.org/2000/svg">
<g clip-path="url(#clip0_470_198)">
<rect width="1280" height="832" fill="white"/>
<g filter="url(#filter0_f_470_198)">
<circle cx="639.5" cy="1348.5" r="811.5" fill="#E6E6FF"/>
</g>
<path d="M1221.65 613.002C1224.2 613.002 1226.27 610.934 1226.27 608.382C1226.27 605.83 1224.2 603.762 1221.65 603.762C1219.1 603.762 1217.03 605.83 1217.03 608.382C1217.03 610.934 1219.1 613.002 1221.65 613.002Z" fill="#CCCCCC" fill-opacity="0.46"/>
<path d="M1221.65 618.976C1216.1 619.109 1210.56 618.361 1205.24 616.758C1202.78 615.979 1200.49 614.752 1198.48 613.139C1197.71 612.588 1197.08 611.878 1196.61 611.057C1196.14 610.236 1195.86 609.323 1195.78 608.382C1195.78 605.327 1199.13 602.333 1204.76 600.374C1210.22 598.64 1215.92 597.799 1221.65 597.883C1227.3 597.805 1232.93 598.631 1238.33 600.33C1240.69 601.085 1242.9 602.253 1244.86 603.779C1245.62 604.305 1246.25 604.99 1246.71 605.785C1247.17 606.58 1247.45 607.467 1247.53 608.382C1247.53 611.557 1243.77 614.775 1237.73 616.774C1232.51 618.326 1227.09 619.068 1221.65 618.976ZM1221.65 600.093C1216.17 600.022 1210.71 600.822 1205.48 602.463C1200.31 604.268 1197.99 606.737 1197.99 608.377C1197.99 610.092 1200.48 612.788 1205.96 614.66C1211.04 616.187 1216.34 616.897 1221.65 616.765C1226.86 616.858 1232.05 616.154 1237.04 614.677C1242.72 612.794 1245.31 610.094 1245.31 608.382C1245.21 607.795 1245 607.234 1244.68 606.733C1244.36 606.233 1243.94 605.805 1243.44 605.475C1241.69 604.121 1239.71 603.086 1237.6 602.418C1232.44 600.8 1227.06 600.015 1221.65 600.093Z" fill="#CCCCCC" fill-opacity="0.46"/>
<path d="M1211.15 631.426C1210.29 631.446 1209.44 631.237 1208.68 630.82C1206.04 629.294 1205.12 624.891 1206.23 619.042C1207.46 613.445 1209.58 608.082 1212.52 603.161C1215.27 598.226 1218.8 593.762 1222.96 589.94C1224.8 588.267 1226.92 586.933 1229.22 585.998C1230.05 585.609 1230.96 585.407 1231.88 585.407C1232.8 585.407 1233.7 585.609 1234.54 585.998C1237.29 587.583 1238.2 592.44 1236.91 598.674C1235.65 603.968 1233.59 609.037 1230.79 613.705C1228.13 618.582 1224.71 623.007 1220.67 626.813C1218.76 628.552 1216.56 629.924 1214.16 630.859C1213.19 631.217 1212.18 631.408 1211.15 631.426ZM1214.43 604.259C1211.63 608.971 1209.6 614.098 1208.41 619.449C1207.38 624.836 1208.36 628.076 1209.79 628.9C1211.27 629.756 1214.86 628.944 1219.22 625.137C1223.08 621.491 1226.34 617.255 1228.88 612.588C1231.56 608.126 1233.54 603.28 1234.76 598.218C1235.96 592.35 1234.92 588.757 1233.44 587.903C1232.88 587.691 1232.29 587.596 1231.69 587.624C1231.1 587.652 1230.52 587.803 1229.99 588.068C1227.94 588.913 1226.05 590.113 1224.42 591.612C1220.44 595.274 1217.08 599.547 1214.44 604.27L1214.43 604.259Z" fill="#CCCCCC" fill-opacity="0.46"/>
<path d="M1232.14 631.45C1229.64 631.45 1226.46 629.935 1223.15 627.087C1218.91 623.229 1215.32 618.713 1212.52 613.712C1209.63 608.859 1207.52 603.574 1206.29 598.057C1205.76 595.629 1205.66 593.126 1206 590.664C1206.08 589.751 1206.36 588.867 1206.81 588.073C1207.27 587.279 1207.9 586.594 1208.65 586.068C1211.4 584.477 1216.06 586.112 1220.82 590.337C1224.77 594.074 1228.13 598.396 1230.78 603.152C1233.68 607.891 1235.8 613.061 1237.08 618.467C1237.64 620.984 1237.72 623.582 1237.33 626.129C1237.24 627.069 1236.95 627.978 1236.47 628.793C1235.99 629.608 1235.35 630.31 1234.57 630.851C1233.83 631.262 1232.99 631.469 1232.14 631.45ZM1214.44 612.599C1217.12 617.379 1220.55 621.701 1224.59 625.405C1228.74 628.981 1232.04 629.75 1233.46 628.916C1234.94 628.057 1236.03 624.549 1234.9 618.874C1233.67 613.712 1231.63 608.777 1228.86 604.253C1226.33 599.702 1223.13 595.563 1219.35 591.982C1214.87 588.005 1211.24 587.116 1209.76 587.973C1209.3 588.348 1208.92 588.815 1208.64 589.344C1208.37 589.872 1208.21 590.452 1208.18 591.045C1207.88 593.241 1207.98 595.471 1208.46 597.633C1209.64 602.91 1211.66 607.963 1214.44 612.603L1214.44 612.599Z" fill="#CCCCCC" fill-opacity="0.46"/>
<g clip-path="url(#clip1_470_198)">
<path d="M1174.42 280C1170.18 280 1167.05 283.706 1167.19 287.726C1167.32 291.587 1167.15 296.589 1165.89 300.668C1164.63 304.758 1162.49 307.349 1159 307.682V311.438C1162.49 311.771 1164.63 314.362 1165.89 318.453C1167.15 322.531 1167.32 327.532 1167.19 331.394C1167.05 335.413 1170.18 339.12 1174.42 339.12H1217.81C1222.04 339.12 1225.18 335.414 1225.04 331.394C1224.9 327.533 1225.08 322.531 1226.33 318.453C1227.6 314.362 1229.73 311.771 1233.22 311.438V307.682C1229.73 307.349 1227.6 304.758 1226.34 300.668C1225.08 296.59 1224.9 291.588 1225.04 287.726C1225.18 283.707 1222.04 280 1217.81 280H1174.42H1174.42ZM1209.32 316.392C1209.32 321.927 1205.19 325.283 1198.34 325.283H1186.68C1186.34 325.283 1186.02 325.151 1185.79 324.915C1185.55 324.679 1185.42 324.359 1185.42 324.025V295.095C1185.42 294.761 1185.55 294.441 1185.79 294.205C1186.02 293.969 1186.34 293.836 1186.68 293.836H1198.27C1203.98 293.836 1207.73 296.931 1207.73 301.682C1207.73 305.017 1205.21 308.002 1202 308.525V308.699C1206.37 309.179 1209.32 312.208 1209.32 316.392ZM1197.07 297.824H1190.42V307.217H1196.02C1200.35 307.217 1202.74 305.473 1202.74 302.357C1202.74 299.437 1200.68 297.824 1197.07 297.824ZM1190.42 310.944V321.295H1197.31C1201.82 321.295 1204.21 319.486 1204.21 316.087C1204.21 312.687 1201.75 310.943 1197.02 310.943H1190.42V310.944Z" fill="#CCCCCC" fill-opacity="0.46"/>
</g>
<path d="M518.23 174.016L514.078 127.442H559.708L555.549 174.008L536.865 179.189L518.23 174.016Z" fill="#CCCCCC" fill-opacity="0.46"/>
<path d="M536.892 175.23L551.991 171.044L555.543 131.251H536.892V175.23Z" fill="#CCCCCC" fill-opacity="0.46"/>
<path d="M536.892 148.523H529.333L528.812 142.674H536.892V136.961H522.569L522.706 138.495L524.108 154.235H536.892V148.523ZM536.892 163.358L536.866 163.365L530.505 161.648L530.098 157.093H524.363L525.164 166.06L536.866 169.309L536.892 169.301V163.358Z" fill="#EBEBEB"/>
<path d="M536.872 148.523V154.235H543.906L543.244 161.645L536.872 163.363V169.307L548.584 166.06L548.669 165.095L550.01 150.057L550.151 148.523H536.872ZM536.872 136.961V142.674H550.67L550.785 141.391L551.045 138.495L551.182 136.961H536.872Z" fill="white" fill-opacity="0.72"/>
<path d="M115.307 220.989L111.156 174.414H156.782L152.626 220.981L133.942 226.162L115.307 220.989Z" fill="#CCCCCC"/>
<path d="M133.969 222.203L149.068 218.017L152.62 178.223H133.969V222.203Z" fill="#CCCCCC" fill-opacity="0.46"/>
<path d="M133.969 195.097H141.528L142.049 189.247H133.969V183.535H148.292L148.155 185.067L146.752 200.809H133.969V195.097Z" fill="white" fill-opacity="0.72"/>
<path d="M134.005 209.931L133.979 209.939L127.618 208.22L127.211 203.665H121.477L122.277 212.633L133.977 215.882L134.005 215.875V209.931Z" fill="white" fill-opacity="0.72"/>
<path d="M141.041 200.567L140.354 208.216L133.983 209.935V215.879L145.693 212.633L145.78 211.669L146.772 200.567H141.041Z" fill="white" fill-opacity="0.72"/>
<path d="M133.989 183.535V189.247H120.191L120.076 187.963L119.815 185.067L119.679 183.535H133.989ZM133.968 195.097V200.809H127.687L127.572 199.525L127.313 196.629L127.177 195.097H133.968Z" fill="white" fill-opacity="0.72"/>
<g clip-path="url(#clip2_470_198)">
<path d="M1211.26 106H1179.85C1172.19 106 1165.99 112.206 1165.99 119.861V151.279C1165.99 158.934 1172.19 165.14 1179.85 165.14H1211.26C1218.92 165.14 1225.12 158.934 1225.12 151.279V119.861C1225.12 112.206 1218.92 106 1211.26 106Z" fill="#CCCCCC" fill-opacity="0.46"/>
<path d="M1195.55 112.93C1182.8 112.93 1172.45 123.273 1172.45 136.032C1172.45 146.239 1179.07 154.898 1188.25 157.953C1189.41 158.167 1189.83 157.452 1189.83 156.842C1189.83 156.291 1189.81 154.471 1189.8 152.541C1183.37 153.938 1182.02 149.815 1182.02 149.815C1180.96 147.145 1179.45 146.435 1179.45 146.435C1177.35 145.001 1179.61 145.031 1179.61 145.031C1181.93 145.193 1183.15 147.411 1183.15 147.411C1185.21 150.943 1188.55 149.922 1189.87 149.332C1190.08 147.838 1190.68 146.819 1191.34 146.243C1186.21 145.658 1180.81 143.677 1180.81 134.826C1180.81 132.303 1181.72 130.242 1183.19 128.625C1182.95 128.043 1182.16 125.693 1183.42 122.511C1183.42 122.511 1185.36 121.89 1189.77 124.879C1191.62 124.367 1193.59 124.111 1195.55 124.102C1197.52 124.111 1199.5 124.367 1201.34 124.879C1205.75 121.89 1207.69 122.511 1207.69 122.511C1208.95 125.693 1208.15 128.043 1207.91 128.625C1209.4 130.242 1210.29 132.303 1210.29 134.826C1210.29 143.699 1204.89 145.652 1199.74 146.224C1200.57 146.941 1201.31 148.347 1201.31 150.502C1201.31 153.593 1201.28 156.081 1201.28 156.842C1201.28 157.457 1201.7 158.177 1202.87 157.95C1212.05 154.892 1218.66 146.236 1218.66 136.032C1218.66 123.273 1208.31 112.93 1195.55 112.93ZM1181.11 145.839C1181.05 145.954 1180.87 145.988 1180.71 145.91C1180.54 145.834 1180.45 145.678 1180.5 145.563C1180.55 145.444 1180.73 145.412 1180.9 145.491C1181.07 145.566 1181.16 145.724 1181.11 145.839ZM1182.24 146.853C1182.13 146.955 1181.92 146.908 1181.77 146.746C1181.62 146.585 1181.59 146.37 1181.7 146.266C1181.82 146.164 1182.02 146.212 1182.18 146.373C1182.33 146.536 1182.36 146.75 1182.24 146.853ZM1183.02 148.15C1182.88 148.249 1182.65 148.157 1182.51 147.951C1182.36 147.746 1182.36 147.499 1182.51 147.401C1182.65 147.302 1182.88 147.391 1183.02 147.595C1183.17 147.803 1183.17 148.05 1183.02 148.15ZM1184.34 149.653C1184.21 149.792 1183.94 149.755 1183.75 149.564C1183.54 149.378 1183.49 149.114 1183.61 148.974C1183.74 148.834 1184.01 148.874 1184.21 149.063C1184.41 149.248 1184.47 149.515 1184.34 149.653ZM1186.04 150.16C1185.99 150.341 1185.73 150.423 1185.47 150.346C1185.21 150.267 1185.03 150.055 1185.09 149.872C1185.14 149.69 1185.4 149.605 1185.67 149.687C1185.93 149.766 1186.1 149.976 1186.04 150.16ZM1187.98 150.375C1187.99 150.566 1187.77 150.724 1187.49 150.727C1187.22 150.733 1186.99 150.579 1186.99 150.392C1186.99 150.199 1187.21 150.043 1187.48 150.038C1187.76 150.033 1187.98 150.186 1187.98 150.375ZM1189.89 150.302C1189.92 150.488 1189.73 150.679 1189.46 150.73C1189.19 150.779 1188.94 150.664 1188.91 150.48C1188.87 150.289 1189.07 150.098 1189.34 150.049C1189.61 150.002 1189.85 150.113 1189.89 150.302Z" fill="white" fill-opacity="0.72"/>
</g>
<g clip-path="url(#clip3_470_198)">
<path d="M381.317 280.392C381.094 280.415 380.396 280.498 379.78 280.571C377.297 280.854 374.481 281.6 372.01 282.641C363.068 286.377 356.337 294.575 354.48 303.977C354.043 306.214 353.937 307.312 353.937 309.891C353.937 313.216 354.267 315.51 355.143 318.408C358.005 327.894 365.457 335.333 374.967 338.207C377.829 339.071 380.135 339.402 383.447 339.402C386.772 339.402 389.065 339.071 391.964 338.196C401.45 335.333 408.889 327.882 411.763 318.372C412.627 315.51 412.957 313.203 412.957 309.891C412.957 308.484 412.887 306.876 412.804 306.283C411.846 299.447 409.03 293.699 404.336 289.003C399.651 284.343 393.926 281.516 387.231 280.558C386.309 280.428 382.039 280.309 381.317 280.392ZM371.678 299.021C372.306 299.21 372.6 299.388 373.026 299.813C373.855 300.654 374.044 301.115 374.044 302.38C374.044 303.327 374.008 303.504 373.725 304.001C373.18 304.923 371.915 305.775 371.039 305.798C370.424 305.811 370.449 305.538 371.123 304.829C372.021 303.894 372.151 303.54 372.151 302.143C372.14 300.795 371.974 300.335 371.348 299.956C370.826 299.637 370.26 299.66 369.431 300.05C367.278 301.08 364.948 304.51 364.038 308.023C362.831 312.707 364.972 316.455 368.496 315.816C369.525 315.627 371.465 314.635 372.306 313.853C373.003 313.216 373.003 313.203 373.073 312.411C373.229 310.754 374.398 309.099 375.961 308.33C376.681 307.974 376.86 307.94 377.829 307.94C378.751 307.94 378.964 307.987 379.414 308.235C380.845 309.052 380.549 310.956 379 310.956C378.102 310.956 377.64 310.494 378.291 310.247C378.93 310.011 378.692 309.123 377.948 308.922C377.073 308.697 376.078 309.288 375.452 310.424C374.694 311.796 374.659 313.429 375.38 314.173C376.078 314.918 376.953 314.328 377.628 312.634C377.982 311.772 378.491 311.31 379.083 311.31C379.603 311.31 379.699 311.63 379.473 312.6C379.141 314.102 379.367 314.492 380.301 314.032C380.608 313.889 381.117 313.559 381.424 313.322L382.003 312.86L382.395 310.814C382.821 308.52 382.985 308.211 383.861 308.047C384.702 307.892 384.891 308.307 384.582 309.619L384.416 310.353L385.032 309.725C386.486 308.235 388.273 307.502 388.889 308.117C389.219 308.448 389.183 308.862 388.71 310.328C388.486 311.027 388.177 312.128 388.037 312.754C387.824 313.699 387.811 313.925 387.931 314.079C388.31 314.528 389.468 314.066 390.497 313.06L391.1 312.47L391.172 311.156C391.242 309.642 391.383 309.099 391.785 308.613C392.164 308.164 392.85 307.834 393.217 307.928C393.583 308.023 393.583 308.377 393.253 309.419C392.791 310.85 392.839 314.149 393.312 314.149C393.502 314.149 394.471 313.133 395.087 312.281L395.547 311.653L395.18 311.276C394.541 310.601 394.388 310.164 394.388 309.063C394.388 308.26 394.448 307.964 394.648 307.572C394.98 306.958 395.5 306.509 396.115 306.331C396.765 306.13 397.57 306.46 397.9 307.052C398.232 307.655 398.149 309.003 397.723 309.927L397.416 310.601H397.83C398.398 310.601 398.622 310.46 399.64 309.501C400.172 308.993 400.788 308.554 401.248 308.341C403.058 307.491 405.188 307.928 405.541 309.229C405.837 310.27 405.188 311.003 404.051 310.92C403.235 310.861 403.082 310.647 403.555 310.247C404.406 309.536 403.555 308.626 402.336 308.957C401.674 309.135 400.929 309.879 400.539 310.743C399.757 312.47 400.172 314.504 401.295 314.504C401.744 314.504 402.538 313.617 402.845 312.754C403.211 311.759 403.98 311.133 404.56 311.358C404.879 311.476 404.903 311.795 404.702 312.801C404.477 313.902 404.442 314.931 404.619 315.403C404.69 315.58 404.903 315.912 405.105 316.136C405.482 316.562 405.495 316.716 405.175 316.917C405.022 317.024 404.819 316.977 404.324 316.705C403.637 316.349 403.046 315.71 402.833 315.107L402.703 314.753L402.23 315.107C401.957 315.297 401.531 315.51 401.284 315.58C400.302 315.84 399.095 315.167 398.528 314.032C398.302 313.593 398.232 312.305 398.398 311.808C398.492 311.535 398.492 311.535 398.113 311.725C397.913 311.831 397.487 311.949 397.157 311.985C396.611 312.045 396.528 312.104 395.985 312.79C395.216 313.746 393.855 315.037 393.3 315.31C392.118 315.9 391.728 315.734 391.419 314.515L391.206 313.699L390.697 314.149C390.047 314.717 388.746 315.403 388.001 315.569C387.291 315.723 386.534 315.497 386.226 315.024C385.767 314.315 385.92 312.813 386.652 310.79C387.196 309.288 386.806 309.265 385.434 310.696C384.417 311.772 383.979 312.541 383.696 313.735C383.401 314.977 383.045 315.426 382.242 315.616C381.756 315.723 381.53 315.426 381.626 314.777L381.697 314.255L381.247 314.564C380.608 315.001 379.803 315.403 379.247 315.557C378.692 315.71 377.959 315.546 377.782 315.237C377.463 314.694 377.463 314.694 376.966 315.084C375.889 315.959 374.351 315.71 373.571 314.551L373.322 314.185L372.542 314.907C370.294 316.965 367.48 317.887 365.398 317.248C362.748 316.445 361.282 314.173 361.306 310.897C361.317 307.609 362.771 304.143 365.221 301.577C366.605 300.133 367.906 299.281 369.231 298.962C370.187 298.725 370.769 298.737 371.678 299.021Z" fill="#CCCCCC" fill-opacity="0.46"/>
<path d="M395.652 307.432C395.392 307.691 395.488 308.733 395.818 309.395C395.984 309.738 396.161 310.011 396.22 310.011C396.268 310.011 396.374 309.738 396.457 309.406C396.753 308.177 396.22 306.863 395.652 307.432Z" fill="#CCCCCC" fill-opacity="0.46"/>
</g>
<g clip-path="url(#clip4_470_198)">
<path d="M126.713 526.668H95.2949C87.6398 526.668 81.4341 532.874 81.4341 540.529V571.947C81.4341 579.602 87.6398 585.808 95.2949 585.808H126.713C134.368 585.808 140.574 579.602 140.574 571.947V540.529C140.574 532.874 134.368 526.668 126.713 526.668Z" fill="#CCCCCC" fill-opacity="0.46"/>
<mask id="mask0_470_198" style="mask-type:luminance" maskUnits="userSpaceOnUse" x="95" y="533" width="32" height="47">
<path d="M95.5259 533.137H126.334V579.339H95.5259V533.137Z" fill="white"/>
</mask>
<g mask="url(#mask0_470_198)">
<path d="M103.231 579.339C107.482 579.339 110.931 575.89 110.931 571.639V563.938H103.231C98.9802 563.938 95.5303 567.388 95.5303 571.639C95.5303 575.89 98.9802 579.339 103.231 579.339Z" fill="white" fill-opacity="0.72"/>
<path d="M95.5303 556.238C95.5303 551.987 98.9802 548.538 103.231 548.538H110.931V563.938H103.231C98.9802 563.938 95.5303 560.489 95.5303 556.238Z" fill="white" fill-opacity="0.72"/>
<path d="M95.5303 540.837C95.5303 536.586 98.9802 533.137 103.231 533.137H110.931V548.538H103.231C98.9802 548.538 95.5303 545.088 95.5303 540.837Z" fill="white" fill-opacity="0.72"/>
<path d="M110.931 533.137H118.631C122.882 533.137 126.332 536.586 126.332 540.837C126.332 545.088 122.882 548.538 118.631 548.538H110.931V533.137Z" fill="white" fill-opacity="0.72"/>
<path d="M126.332 556.238C126.332 560.489 122.882 563.938 118.631 563.938C114.38 563.938 110.931 560.489 110.931 556.238C110.931 551.987 114.38 548.538 118.631 548.538C122.882 548.538 126.332 551.987 126.332 556.238Z" fill="white" fill-opacity="0.72"/>
</g>
</g>
<g clip-path="url(#clip5_470_198)">
<path d="M978.534 191.805H967.228V169.674H978.534C984.635 169.674 989.598 174.637 989.598 180.738C989.598 186.84 984.635 191.805 978.534 191.805ZM970.853 188.18H978.534C982.637 188.18 985.973 184.841 985.973 180.741C985.973 176.641 982.634 173.302 978.534 173.302H970.853V188.18ZM970.853 191.805H959.55C953.449 191.805 948.486 186.842 948.486 180.741C948.486 174.64 953.449 169.674 959.55 169.674H970.855V191.805H970.853ZM959.55 173.299C955.447 173.299 952.111 176.638 952.111 180.738C952.111 184.839 955.447 188.18 959.55 188.18H967.231V173.299H959.55ZM970.853 210.308H959.55C953.449 210.308 948.486 205.345 948.486 199.244C948.486 193.143 953.449 188.18 959.55 188.18H970.855V210.308H970.853ZM959.55 191.805C955.447 191.805 952.111 195.144 952.111 199.244C952.111 203.345 955.45 206.683 959.55 206.683H967.231V191.805H959.55ZM959.609 228.814C953.476 228.814 948.483 223.851 948.483 217.75C948.483 211.649 953.446 206.686 959.547 206.686H970.853V217.629C970.853 223.797 965.809 228.814 959.609 228.814ZM959.55 210.308C957.578 210.311 955.687 211.095 954.292 212.49C952.898 213.885 952.113 215.775 952.111 217.748C952.111 221.85 955.474 225.187 959.612 225.187C963.813 225.187 967.233 221.796 967.233 217.627V210.308H959.55ZM978.534 210.308H978.292C972.191 210.308 967.228 205.345 967.228 199.244C967.228 193.143 972.191 188.18 978.292 188.18H978.534C984.635 188.18 989.598 193.143 989.598 199.244C989.598 205.345 984.635 210.308 978.534 210.308ZM978.295 191.805C974.192 191.805 970.855 195.144 970.855 199.244C970.855 203.345 974.194 206.683 978.295 206.683H978.536C982.639 206.683 985.975 203.345 985.975 199.244C985.975 195.144 982.634 191.805 978.534 191.805H978.295Z" fill="#888888" fill-opacity="0.55"/>
</g>
<path d="M820.373 147.275C816.84 147.275 813.386 146.227 810.448 144.264C807.51 142.301 805.22 139.511 803.868 136.246C802.516 132.982 802.162 129.39 802.851 125.924C803.54 122.459 805.242 119.275 807.74 116.777C810.239 114.278 813.422 112.577 816.888 111.888C820.353 111.198 823.945 111.552 827.21 112.904C830.474 114.256 833.264 116.546 835.227 119.484C837.19 122.422 838.238 125.876 838.238 129.409C838.232 134.146 836.348 138.687 832.999 142.036C829.65 145.385 825.109 147.269 820.373 147.275ZM820.373 121.401C818.789 121.401 817.241 121.871 815.924 122.751C814.607 123.631 813.58 124.881 812.974 126.345C812.368 127.808 812.209 129.418 812.518 130.972C812.827 132.525 813.59 133.952 814.71 135.072C815.83 136.192 817.257 136.955 818.811 137.264C820.364 137.573 821.974 137.415 823.438 136.808C824.901 136.202 826.152 135.176 827.032 133.859C827.912 132.542 828.381 130.993 828.381 129.409C828.378 127.287 827.533 125.251 826.032 123.75C824.531 122.249 822.496 121.404 820.373 121.401Z" stroke="#888888" stroke-opacity="0.55" stroke-width="1.23208" stroke-linecap="round" stroke-linejoin="round"/>
<path d="M812.363 145.373V154.667C812.363 155.974 811.844 157.228 810.92 158.152C809.995 159.076 808.742 159.595 807.435 159.595C806.128 159.595 804.874 159.076 803.95 158.152C803.026 157.228 802.506 155.974 802.506 154.667V129.409M793.882 158.363V133.106" stroke="#888888" stroke-opacity="0.55" stroke-width="1.23208" stroke-linecap="round" stroke-linejoin="round"/>
<path d="M793.882 130.334C794.392 130.334 794.806 129.92 794.806 129.409C794.806 128.899 794.392 128.485 793.882 128.485C793.372 128.485 792.958 128.899 792.958 129.409C792.958 129.92 793.372 130.334 793.882 130.334Z" fill="#888888" fill-opacity="0.55"/>
<path d="M820.373 137.418V147.275M814.71 135.072L807.74 142.042M812.364 129.409H802.508M814.71 123.747L807.74 116.777M820.373 121.401V111.544M826.036 123.747L833.005 116.777M828.381 129.409H838.238M826.036 135.072L833.005 142.042" stroke="#888888" stroke-opacity="0.55" stroke-width="1.23208" stroke-linecap="round" stroke-linejoin="round"/>
</g>
<defs>
<filter id="filter0_f_470_198" x="-282.703" y="426.297" width="1844.41" height="1844.41" filterUnits="userSpaceOnUse" color-interpolation-filters="sRGB">
<feFlood flood-opacity="0" result="BackgroundImageFix"/>
<feBlend mode="normal" in="SourceGraphic" in2="BackgroundImageFix" result="shape"/>
<feGaussianBlur stdDeviation="55.3513" result="effect1_foregroundBlur_470_198"/>
</filter>
<clipPath id="clip0_470_198">
<rect width="1280" height="832" fill="white"/>
</clipPath>
<clipPath id="clip1_470_198">
<rect width="74.2202" height="59.1396" fill="white" transform="translate(1159 280)"/>
</clipPath>
<clipPath id="clip2_470_198">
<rect width="59.1396" height="59.1396" fill="white" transform="translate(1165.99 106)"/>
</clipPath>
<clipPath id="clip3_470_198">
<rect width="59.1396" height="59.1396" fill="white" transform="translate(353.877 280.322)"/>
</clipPath>
<clipPath id="clip4_470_198">
<rect width="59.1396" height="59.1396" fill="white" transform="translate(81.4341 526.668)"/>
</clipPath>
<clipPath id="clip5_470_198">
<rect width="59.1396" height="59.1396" fill="white" transform="translate(939.473 169.674)"/>
</clipPath>
</defs>
</svg>
